<svg id="图层_1" data-name="图层 1" xmlns="http://www.w3.org/2000/svg" viewBox="0 0 925.66 1444.72"><defs><style>.cls-1,.cls-10,.cls-11,.cls-13,.cls-14,.cls-16,.cls-19,.cls-20,.cls-26,.cls-29,.cls-31,.cls-32,.cls-34,.cls-36{fill:none;}.cls-1{stroke:#a699a4;stroke-dasharray:3 3;}.cls-1,.cls-10,.cls-11,.cls-13,.cls-14,.cls-16,.cls-18,.cls-19,.cls-20,.cls-26,.cls-27,.cls-29,.cls-31,.cls-32,.cls-34,.cls-36,.cls-8{stroke-miterlimit:10;}.cls-1,.cls-10,.cls-11,.cls-13,.cls-14,.cls-16,.cls-18,.cls-19,.cls-20,.cls-26,.cls-29,.cls-31,.cls-32,.cls-34,.cls-36,.cls-8{stroke-width:2px;}.cls-2{fill:#727171;}.cls-22,.cls-24,.cls-25,.cls-3,.cls-33,.cls-9{font-size:14px;}.cls-18,.cls-27,.cls-3,.cls-7,.cls-8{fill:#fff;}.cls-22,.cls-24,.cls-25,.cls-3,.cls-33,.cls-35,.cls-37,.cls-9{font-family:ArialMT, Arial;}.cls-4{letter-spacing:-0.06em;}.cls-5{fill:#3a9874;}.cls-6{fill:#cf5c63;}.cls-13,.cls-14,.cls-8{stroke:#399f79;}.cls-15,.cls-9{fill:#399f79;}.cls-10,.cls-11{stroke:#35af54;}.cls-11{stroke-dasharray:2.99 2.99;}.cls-12{fill:#35af54;}.cls-14,.cls-20{stroke-dasharray:2.99 2.99;}.cls-16,.cls-26{stroke:#a497a2;}.cls-17{fill:#a497a2;}.cls-18,.cls-19,.cls-20,.cls-29{stroke:#927eb9;}.cls-21{fill:#927eb9;}.cls-22{fill:#a296a0;}.cls-23{letter-spacing:-0.04em;}.cls-24{fill:#8c79b0;}.cls-25{fill:#a0949f;}.cls-26{stroke-dasharray:3.02 3.02;}.cls-27{stroke:#fff;}.cls-28,.cls-33,.cls-35,.cls-37{fill:#c55960;}.cls-29{stroke-dasharray:3.04 3.04;}.cls-30{letter-spacing:-0.11em;}.cls-31,.cls-32,.cls-34,.cls-36{stroke:#c55960;}.cls-32{stroke-dasharray:2.88 2.88;}.cls-34{stroke-dasharray:2.88 2.88;}.cls-35{font-size:12.78px;}.cls-36{stroke-dasharray:3 3;}.cls-37{font-size:12px;}</style></defs><title>life-cycle</title><circle class="cls-1" cx="244.71" cy="1139.03" r="90.71"/><circle class="cls-1" cx="501.86" cy="644.25" r="90.71"/><circle class="cls-1" cx="382.75" cy="414.68" r="90.71"/><path class="cls-2" d="M710,108.49c0,4-4.21,7.27-9.4,7.27H523.44c-5.19,0-9.4-3.25-9.4-7.27V68c0-4,4.21-7.27,9.4-7.27H700.56c5.19,0,9.4,3.25,9.4,7.27Z" transform="translate(-229.85 -60.75)"/><text class="cls-3" transform="translate(324.81 31.69)">new<tspan class="cls-4" x="25.68" y="0"> </tspan><tspan x="28.8" y="0">Applicatiton();</tspan></text><rect class="cls-5" x="257.77" y="108.34" width="248.8" height="55" rx="12" ry="12"/><text class="cls-3" transform="translate(352.75 139.83)">Bootstrap</text><rect class="cls-6" x="255.27" y="293.84" width="253.8" height="60" rx="14.5" ry="14.5"/><path class="cls-7" d="M724.42,357.09a12,12,0,0,1,12,12v31a12,12,0,0,1-12,12H499.62a12,12,0,0,1-12-12v-31a12,12,0,0,1,12-12h224.8m0-5H499.62a17,17,0,0,0-17,17v31a17,17,0,0,0,17,17h224.8a17,17,0,0,0,17-17v-31a17,17,0,0,0-17-17Z" transform="translate(-229.85 -60.75)"/><text class="cls-3" transform="translate(320.12 329.83)">Init Service Provider</text><rect class="cls-8" x="38.48" y="183.18" width="174.43" height="38.56" rx="8.41" ry="8.41"/><text class="cls-9" transform="translate(45.72 207.5)">Register Service Provider</text><line class="cls-10" x1="228.18" y1="201.5" x2="229.68" y2="201.5"/><line class="cls-11" x1="232.67" y1="201.5" x2="368.83" y2="201.5"/><line class="cls-10" x1="370.32" y1="201.5" x2="371.82" y2="201.5"/><polygon class="cls-12" points="229.2 205 223.16 201.5 229.2 198.01 229.2 205"/><rect class="cls-8" x="39.46" y="236.68" width="174.45" height="38.56" rx="8.41" ry="8.41"/><text class="cls-9" transform="translate(60.11 260.84)">Customize Bootstrap</text><line class="cls-13" x1="228.18" y1="256.5" x2="229.68" y2="256.5"/><line class="cls-14" x1="232.67" y1="256.5" x2="368.83" y2="256.5"/><line class="cls-13" x1="370.32" y1="256.5" x2="371.82" y2="256.5"/><polygon class="cls-15" points="229.2 260 223.16 256.5 229.2 253.01 229.2 260"/><line class="cls-16" x1="382.15" y1="168.25" x2="382.15" y2="287.22"/><polygon class="cls-17" points="378.67 286.2 382.15 292.25 385.64 286.2 378.67 286.2"/><line class="cls-16" x1="382.18" y1="60.11" x2="382.18" y2="99.89"/><polygon class="cls-17" points="378.69 98.87 382.18 104.91 385.67 98.87 378.69 98.87"/><path class="cls-6" d="M613,763a60.83,60.83,0,1,1,60.83-60.83A60.9,60.9,0,0,1,613,763Z" transform="translate(-229.85 -60.75)"/><path class="cls-7" d="M613,643.81a58.33,58.33,0,1,1-58.33,58.33A58.33,58.33,0,0,1,613,643.81m0-5a63.33,63.33,0,1,0,63.33,63.33A63.41,63.41,0,0,0,613,638.81Z" transform="translate(-229.85 -60.75)"/><line class="cls-16" x1="382.9" y1="510.25" x2="382.9" y2="573.99"/><polygon class="cls-17" points="379.41 572.97 382.9 579.02 386.39 572.97 379.41 572.97"/><rect class="cls-18" x="40.46" y="519.68" width="174.45" height="38.56" rx="8.41" ry="8.41"/><line class="cls-19" x1="229.18" y1="539.5" x2="230.68" y2="539.5"/><line class="cls-20" x1="233.67" y1="539.5" x2="369.83" y2="539.5"/><line class="cls-19" x1="371.32" y1="539.5" x2="372.82" y2="539.5"/><polygon class="cls-21" points="230.2 543 224.16 539.5 230.2 536.01 230.2 543"/><rect class="cls-7" x="226.16" y="384.91" width="138.01" height="70.33"/><text class="cls-22" transform="translate(274.08 416.25)"><tspan class="cls-23">W</tspan><tspan x="12.69" y="0">ait</tspan><tspan class="cls-4" x="27.48" y="0"> </tspan><tspan x="30.6" y="0">All</tspan><tspan x="-29.84" y="16.8">Inited Completed</tspan></text><text class="cls-24" transform="translate(69.71 544.63)">OnStartCompleted</text><text class="cls-3" transform="translate(357.07 647.25)">Running</text><rect class="cls-7" x="455.52" y="538.96" width="92.67" height="47.23"/><text class="cls-25" transform="translate(462.57 556.25)">When Game<tspan x="21.79" y="16.8">Cycle</tspan></text><rect class="cls-6" x="522.65" y="606.94" width="132" height="68.9" rx="12.21" ry="12.21"/><path class="cls-7" d="M872.29,670.19A9.71,9.71,0,0,1,882,679.9v44.49a9.71,9.71,0,0,1-9.71,9.71H764.71a9.71,9.71,0,0,1-9.71-9.71V679.9a9.71,9.71,0,0,1,9.71-9.71H872.29m0-5H764.71A14.72,14.72,0,0,0,750,679.9v44.49a14.72,14.72,0,0,0,14.71,14.71H872.29A14.72,14.72,0,0,0,887,724.39V679.9a14.72,14.72,0,0,0-14.71-14.71Z" transform="translate(-229.85 -60.75)"/><text class="cls-3" transform="translate(564.28 637.39)">Service <tspan x="-12.84" y="16.8">Compoment</tspan></text><line class="cls-16" x1="382.18" y1="706.12" x2="382.18" y2="707.62"/><line class="cls-26" x1="382.18" y1="710.64" x2="382.18" y2="1077.21"/><line class="cls-16" x1="382.18" y1="1078.72" x2="382.18" y2="1080.22"/><polygon class="cls-17" points="378.69 1079.2 382.18 1085.24 385.67 1079.2 378.69 1079.2"/><rect class="cls-27" x="314.15" y="769.25" width="136" height="76"/><text class="cls-22" transform="translate(337.81 803.25)">When Destroy<tspan x="5.44" y="16.8">Application()</tspan></text><rect class="cls-28" x="286.66" y="1089.75" width="192" height="94" rx="14.5" ry="14.5"/><path class="cls-7" d="M694,1153a12,12,0,0,1,12,12v65a12,12,0,0,1-12,12H531a12,12,0,0,1-12-12v-65a12,12,0,0,1,12-12H694m0-5H531a17,17,0,0,0-17,17v65a17,17,0,0,0,17,17H694a17,17,0,0,0,17-17v-65a17,17,0,0,0-17-17Z" transform="translate(-229.85 -60.75)"/><text class="cls-3" transform="translate(331.69 1142.25)">Release Service</text><line class="cls-16" x1="382.18" y1="1189.12" x2="382.18" y2="1311.22"/><polygon class="cls-17" points="378.69 1310.2 382.18 1316.24 385.67 1310.2 378.69 1310.2"/><circle class="cls-6" cx="382.15" cy="1386.39" r="58.33"/><text class="cls-3" transform="translate(351.25 1393.25)">Destroyed</text><rect class="cls-18" x="40.46" y="1367.11" width="174.45" height="38.56" rx="8.41" ry="8.41"/><line class="cls-19" x1="229.18" y1="1386.93" x2="230.68" y2="1386.93"/><line class="cls-29" x1="233.71" y1="1386.93" x2="311.14" y2="1386.93"/><line class="cls-19" x1="312.65" y1="1386.93" x2="314.15" y2="1386.93"/><polygon class="cls-21" points="230.2 1390.42 224.16 1386.93 230.2 1383.44 230.2 1390.42"/><text class="cls-24" transform="translate(83.72 1392.06)">On<tspan class="cls-30" x="18.68" y="0">T</tspan><tspan x="25.68" y="0">erminated</tspan></text><line class="cls-31" x1="181.15" y1="1063.25" x2="180.13" y2="1062.15"/><line class="cls-32" x1="178.17" y1="1060.04" x2="155.59" y2="1035.85"/><line class="cls-31" x1="154.61" y1="1034.8" x2="153.58" y2="1033.7"/><polygon class="cls-28" points="156.83 1032.07 150.16 1030.03 151.73 1036.83 156.83 1032.07"/><rect class="cls-31" x="1" y="983.25" width="148" height="46" rx="12" ry="12"/><text class="cls-33" transform="translate(45.87 1010.25)">Release();</text><line class="cls-31" x1="182" y1="1217.29" x2="180.98" y2="1218.38"/><line class="cls-34" x1="179.01" y1="1220.49" x2="156.43" y2="1244.68"/><line class="cls-31" x1="155.45" y1="1245.73" x2="154.43" y2="1246.83"/><polygon class="cls-28" points="152.57 1243.7 151 1250.5 157.68 1248.46 152.57 1243.7"/><rect class="cls-31" x="2.15" y="1250.89" width="148" height="46" rx="12" ry="12"/><rect class="cls-7" x="84.99" y="1107.08" width="138.01" height="70.33"/><text class="cls-22" transform="translate(130.31 1136.41)">Release<tspan x="-10.51" y="16.8">Component</tspan></text><rect class="cls-18" x="40.46" y="895.68" width="174.45" height="38.56" rx="8.41" ry="8.41"/><line class="cls-19" x1="229.18" y1="915.51" x2="230.68" y2="915.51"/><line class="cls-20" x1="233.67" y1="915.51" x2="369.83" y2="915.51"/><line class="cls-19" x1="371.32" y1="915.51" x2="372.82" y2="915.51"/><polygon class="cls-21" points="230.2 919 224.16 915.51 230.2 912.02 230.2 919"/><text class="cls-24" transform="translate(87.61 920.63)">On<tspan class="cls-30" x="18.68" y="0">T</tspan><tspan x="25.68" y="0">erminate</tspan></text><rect class="cls-31" x="617.3" y="796.25" width="135.1" height="41.99" rx="10.95" ry="10.95"/><text class="cls-35" transform="translate(661.09 820.89)">Update();</text><line class="cls-31" x1="561.56" y1="729.03" x2="562.59" y2="730.13"/><line class="cls-32" x1="564.55" y1="732.23" x2="587.13" y2="756.42"/><line class="cls-31" x1="588.11" y1="757.48" x2="589.14" y2="758.57"/><polygon class="cls-28" points="585.89 760.21 592.57 762.25 590.99 755.44 585.89 760.21"/><rect class="cls-31" x="617.3" y="851.01" width="135.1" height="41.99" rx="10.95" ry="10.95"/><text class="cls-35" transform="translate(648.65 875.66)">LateUpdate();</text><rect class="cls-31" x="766.08" y="796.25" width="135.1" height="41.99" rx="10.95" ry="10.95"/><text class="cls-35" transform="translate(794.24 820.89)">FixedUpdate();</text><rect class="cls-31" x="617.3" y="905.78" width="135.1" height="41.99" rx="10.95" ry="10.95"/><text class="cls-35" transform="translate(661.81 930.43)">OnGUI();</text><rect class="cls-36" x="598.63" y="775.25" width="326.03" height="189.98" rx="12" ry="12"/><text class="cls-33" transform="translate(46.26 1278.89)">Dispose();</text><rect class="cls-7" x="615.82" y="763.25" width="188.04" height="26.5"/><rect class="cls-7" x="14.17" y="1240.27" width="73.83" height="22.2"/><text class="cls-37" transform="translate(19.7 1254.68)">IDisposable</text><text class="cls-35" transform="translate(622.14 780.47)">Expand Component Supported</text></svg>