<svg id="图层_1" data-name="图层 1" xmlns="http://www.w3.org/2000/svg" xmlns:xlink="http://www.w3.org/1999/xlink" viewBox="0 0 1236.0875 1729.4135"><defs><style>.cls-1,.cls-12,.cls-13,.cls-15,.cls-18,.cls-19,.cls-24,.cls-29,.cls-31,.cls-32,.cls-35,.cls-36,.cls-39,.cls-4,.cls-40,.cls-42{fill:none;}.cls-1,.cls-35,.cls-4{stroke:#a699a4;}.cls-1,.cls-10,.cls-12,.cls-13,.cls-15,.cls-17,.cls-18,.cls-19,.cls-24,.cls-25,.cls-29,.cls-31,.cls-32,.cls-35,.cls-36,.cls-39,.cls-4,.cls-40,.cls-42{stroke-miterlimit:10;}.cls-1,.cls-10,.cls-12,.cls-13,.cls-15,.cls-17,.cls-18,.cls-19,.cls-24,.cls-29,.cls-31,.cls-32,.cls-35,.cls-36,.cls-39,.cls-4,.cls-40,.cls-42{stroke-width:2px;}.cls-1{stroke-dasharray:2.9997 2.9997;}.cls-2,.cls-33,.cls-34{fill:#c55960;}.cls-10,.cls-17,.cls-25,.cls-3,.cls-6{fill:#fff;}.cls-4{stroke-dasharray:2.9997 2.9997;}.cls-5{fill:#727171;}.cls-11,.cls-21,.cls-23,.cls-33,.cls-43,.cls-6{font-size:14px;}.cls-11,.cls-21,.cls-23,.cls-33,.cls-34,.cls-37,.cls-43,.cls-6{font-family:ArialMT, Arial;}.cls-7{letter-spacing:-0.0552em;}.cls-8{fill:#3a9874;}.cls-9{fill:#cf5c63;}.cls-10{stroke:#399f79;}.cls-11{fill:#399f79;}.cls-12,.cls-13{stroke:#35af54;}.cls-13,.cls-19{stroke-dasharray:2.9924 2.9924;}.cls-14{fill:#35af54;}.cls-15,.cls-24{stroke:#a497a2;}.cls-16{fill:#a497a2;}.cls-17,.cls-18,.cls-19,.cls-29{stroke:#927eb9;}.cls-20{fill:#927eb9;}.cls-21{fill:#a296a0;}.cls-22{letter-spacing:-0.0371em;}.cls-23{fill:#8c79b0;}.cls-24{stroke-dasharray:3.0055 3.0055;}.cls-25{stroke:#fff;}.cls-26{letter-spacing:-0.0181em;}.cls-27,.cls-28{fill:#a1959f;}.cls-27,.cls-30{letter-spacing:-0.1108em;}.cls-29{stroke-dasharray:3.0362 3.0362;}.cls-31,.cls-32{stroke:#c55960;}.cls-32,.cls-40{stroke-dasharray:2.8777 2.8777;}.cls-34{font-size:12px;}.cls-35{stroke-dasharray:2.9997 2.9997;}.cls-36,.cls-42{stroke:#abaaaa;}.cls-37{font-size:12.7793px;fill:#abaaaa;}.cls-38{fill:url(#未命名的渐变);}.cls-39,.cls-40{stroke:#a497a3;}.cls-41{fill:#a497a3;}.cls-42{stroke-dasharray:3 3;}.cls-43{fill:#a0949f;}</style><linearGradient id="未命名的渐变" x1="791.4102" y1="899.779" x2="822.4102" y2="899.779" gradientUnits="userSpaceOnUse"><stop offset="0" stop-color="#fff"/><stop offset="1"/></linearGradient></defs><title>life-cycle</title><circle class="cls-1" cx="474.551" cy="1312.1747" r="90.7056"/><rect class="cls-2" x="525.834" y="1279.2922" width="177.666" height="61.7832" rx="12.9453" ry="12.9453"/><path class="cls-3" d="M690.5543,1281.7922A10.4458,10.4458,0,0,1,701,1292.238V1328.13a10.4456,10.4456,0,0,1-10.4457,10.4457H538.7794a10.4456,10.4456,0,0,1-10.4457-10.4457V1292.238a10.4458,10.4458,0,0,1,10.4457-10.4458H690.5543m0-5H538.7794a15.4632,15.4632,0,0,0-15.4457,15.4458V1328.13a15.4632,15.4632,0,0,0,15.4457,15.4457H690.5543A15.4632,15.4632,0,0,0,706,1328.13V1292.238a15.4632,15.4632,0,0,0-15.4457-15.4458Z"/><circle class="cls-4" cx="612.5979" cy="497.8252" r="90.7056"/><path class="cls-5" d="M709.959,130.8742c0,4.0132-4.2119,7.2666-9.4033,7.2666H523.4443c-5.1938,0-9.4038-3.2534-9.4038-7.2666V90.4079c0-4.0132,4.21-7.2671,9.4038-7.2671H700.5557c5.1914,0,9.4033,3.2539,9.4033,7.2671Z"/><text class="cls-6" transform="translate(554.6602 114.8347)">new<tspan class="cls-7" x="25.6826" y="0"> </tspan><tspan x="28.7998" y="0">Applicatiton();</tspan></text><rect class="cls-8" x="487.6182" y="191.4792" width="248.8047" height="55" rx="12" ry="12"/><text class="cls-6" transform="translate(582.5981 222.9748)">Bootstrap</text><rect class="cls-9" x="485.1182" y="376.9792" width="253.8047" height="60" rx="14.5" ry="14.5"/><path class="cls-3" d="M724.4229,379.4792a12,12,0,0,1,12,12v31a12,12,0,0,1-12,12H499.6182a12,12,0,0,1-12-12v-31a12,12,0,0,1,12-12H724.4229m0-5H499.6182a17.0193,17.0193,0,0,0-17,17v31a17.0193,17.0193,0,0,0,17,17H724.4229a17.0193,17.0193,0,0,0,17-17v-31a17.0193,17.0193,0,0,0-17-17Z"/><text class="cls-6" transform="translate(549.9639 412.9748)">Init Service Provider</text><path class="cls-10" d="M788.65,266.3234H946.2539a8.4131,8.4131,0,0,1,8.4131,8.4131V296.47a8.4126,8.4126,0,0,1-8.4126,8.4126H788.65a8.4126,8.4126,0,0,1-8.4126-8.4126V274.736a8.4126,8.4126,0,0,1,8.4126-8.4126Z"/><text class="cls-11" transform="translate(803.0894 290.6413)">Customize Bootstrap</text><line class="cls-12" x1="764.9694" y1="284.6457" x2="763.4694" y2="284.6457"/><line class="cls-13" x1="760.4769" y1="284.6457" x2="624.3224" y2="284.6457"/><line class="cls-12" x1="622.8262" y1="284.6457" x2="621.3262" y2="284.6457"/><polygon class="cls-14" points="763.948 281.155 769.993 284.646 763.948 288.136 763.948 281.155"/><line class="cls-15" x1="612" y1="251.3859" x2="612" y2="370.3626"/><polygon class="cls-16" points="608.51 369.341 612 375.386 615.49 369.341 608.51 369.341"/><line class="cls-15" x1="612.0205" y1="143.2506" x2="612.0205" y2="183.0291"/><polygon class="cls-16" points="608.53 182.008 612.021 188.052 615.511 182.008 608.53 182.008"/><line class="cls-15" x1="612.748" y1="593.3859" x2="612.748" y2="727.2907"/><polygon class="cls-16" points="609.258 726.269 612.748 732.314 616.238 726.269 609.258 726.269"/><path class="cls-17" d="M278.7188,602.8214H436.3427a8.4136,8.4136,0,0,1,8.4136,8.4136v21.7368a8.4141,8.4141,0,0,1-8.4141,8.4141H278.7182a8.4135,8.4135,0,0,1-8.4135-8.4135V611.2355A8.4141,8.4141,0,0,1,278.7188,602.8214Z"/><line class="cls-18" x1="459.0239" y1="622.6458" x2="460.5239" y2="622.6458"/><line class="cls-19" x1="463.5163" y1="622.6458" x2="599.6708" y2="622.6458"/><line class="cls-18" x1="601.167" y1="622.6458" x2="602.667" y2="622.6458"/><polygon class="cls-20" points="460.045 626.136 454 622.646 460.045 619.155 460.045 626.136"/><rect class="cls-3" x="456.0005" y="468.0529" width="138.0132" height="70.333"/><text class="cls-21" transform="translate(503.9214 499.3859)"><tspan class="cls-22">W</tspan><tspan x="12.6943" y="0">ait</tspan><tspan class="cls-7" x="27.4805" y="0"> </tspan><tspan x="30.5977" y="0">All</tspan><tspan x="-29.8423" y="16.7998">Inited Completed</tspan></text><text class="cls-23" transform="translate(331.0684 627.7717)">OnInited</text><line class="cls-15" x1="612.0205" y1="789.2609" x2="612.0205" y2="790.7609"/><line class="cls-24" x1="612.0205" y1="793.7664" x2="612.0205" y2="1261.117"/><line class="cls-15" x1="612.0205" y1="1262.6198" x2="612.0205" y2="1264.1198"/><polygon class="cls-16" points="608.53 1263.098 612.021 1269.143 615.511 1263.098 608.53 1263.098"/><rect class="cls-25" x="544" y="934.3859" width="136" height="76"/><text class="cls-21" transform="translate(561.1611 968.3859)">When<tspan class="cls-26" x="36.5723" y="0"> </tspan><tspan class="cls-27" x="40.209" y="0">T</tspan><tspan class="cls-28" x="47.209" y="0">erminate</tspan><tspan x="11.9321" y="16.7998">Application()</tspan></text><text class="cls-6" transform="translate(561.5313 1314.3859)">Release Service</text><line class="cls-15" x1="612.0205" y1="1348.3859" x2="612.0205" y2="1486.3626"/><polygon class="cls-16" points="608.53 1485.341 612.021 1491.386 615.511 1485.341 608.53 1485.341"/><circle class="cls-9" cx="612.0001" cy="1559.5302" r="58.3336"/><text class="cls-6" transform="translate(581.0903 1566.3859)">Destroyed</text><path class="cls-17" d="M278.7188,1540.2472H436.3427a8.4136,8.4136,0,0,1,8.4136,8.4136v21.7368a8.4141,8.4141,0,0,1-8.4141,8.4141H278.7182a8.4135,8.4135,0,0,1-8.4135-8.4135v-21.7369A8.4141,8.4141,0,0,1,278.7188,1540.2472Z"/><line class="cls-18" x1="459.0239" y1="1560.0715" x2="460.5239" y2="1560.0715"/><line class="cls-29" x1="463.56" y1="1560.0715" x2="540.9819" y2="1560.0715"/><line class="cls-18" x1="542.5" y1="1560.0715" x2="544" y2="1560.0715"/><polygon class="cls-20" points="460.045 1563.562 454 1560.071 460.045 1556.581 460.045 1563.562"/><text class="cls-23" transform="translate(313.5649 1565.1975)">On<tspan class="cls-30" x="18.6758" y="0">T</tspan><tspan x="25.6758" y="0">erminated</tspan></text><line class="cls-31" x1="411" y1="1236.3859" x2="409.9765" y2="1235.2894"/><line class="cls-32" x1="408.013" y1="1233.1856" x2="385.4328" y2="1208.9929"/><line class="cls-31" x1="384.451" y1="1207.941" x2="383.4276" y2="1206.8443"/><polygon class="cls-2" points="386.676 1205.209 380 1203.172 381.573 1209.973 386.676 1205.209"/><rect class="cls-31" x="230.8452" y="1156.3859" width="148" height="46" rx="12" ry="12"/><text class="cls-33" transform="translate(266.3726 1183.3859)">OnRelease();</text><line class="cls-31" x1="411.8452" y1="1390.4269" x2="410.8217" y2="1391.5235"/><line class="cls-32" x1="408.8582" y1="1393.6273" x2="386.278" y2="1417.82"/><line class="cls-31" x1="385.2962" y1="1418.8719" x2="384.2727" y2="1419.9685"/><polygon class="cls-2" points="382.418 1416.84 380.845 1423.641 387.521 1421.603 382.418 1416.84"/><rect class="cls-31" x="232" y="1424.0334" width="148" height="46" rx="12" ry="12"/><rect class="cls-3" x="314.8384" y="1280.2189" width="138.0132" height="70.333"/><text class="cls-21" transform="translate(360.1548 1309.5519)">Release<tspan x="-10.5068" y="16.7998">Component</tspan></text><path class="cls-17" d="M278.7188,1068.8234H436.3427a8.4136,8.4136,0,0,1,8.4136,8.4136v21.7368a8.4141,8.4141,0,0,1-8.4141,8.4141H278.7182a8.4135,8.4135,0,0,1-8.4135-8.4135v-21.7369A8.4141,8.4141,0,0,1,278.7188,1068.8234Z"/><line class="cls-18" x1="459.0239" y1="1088.6476" x2="460.5239" y2="1088.6476"/><line class="cls-19" x1="463.5163" y1="1088.6476" x2="599.6708" y2="1088.6476"/><line class="cls-18" x1="601.167" y1="1088.6476" x2="602.667" y2="1088.6476"/><polygon class="cls-20" points="460.045 1092.138 454 1088.648 460.045 1085.157 460.045 1092.138"/><text class="cls-23" transform="translate(317.458 1093.7736)">On<tspan class="cls-30" x="18.6758" y="0">T</tspan><tspan x="25.6758" y="0">erminate</tspan></text><text class="cls-33" transform="translate(276.1038 1452.031)">Dispose();</text><rect class="cls-3" x="244.0113" y="1413.4136" width="73.8271" height="22.1992"/><text class="cls-34" transform="translate(249.5405 1427.8244)">IDisposable</text><path class="cls-17" d="M277.7188,318.197H435.3427a8.4136,8.4136,0,0,1,8.4136,8.4136v21.7368a8.4141,8.4141,0,0,1-8.4141,8.4141H277.7182a8.4135,8.4135,0,0,1-8.4135-8.4135V326.6111A8.4141,8.4141,0,0,1,277.7188,318.197Z"/><line class="cls-18" x1="458.0239" y1="338.0213" x2="459.5239" y2="338.0213"/><line class="cls-19" x1="462.5163" y1="338.0213" x2="598.6708" y2="338.0213"/><line class="cls-18" x1="600.167" y1="338.0213" x2="601.667" y2="338.0213"/><polygon class="cls-20" points="459.045 341.512 453 338.021 459.045 334.531 459.045 341.512"/><text class="cls-23" transform="translate(309.4443 343.1472)">OnBootstraped</text><path class="cls-17" d="M278.7188,660.8214H436.3427a8.4136,8.4136,0,0,1,8.4136,8.4136v21.7368a8.4141,8.4141,0,0,1-8.4141,8.4141H278.7182a8.4135,8.4135,0,0,1-8.4135-8.4135V669.2355A8.4141,8.4141,0,0,1,278.7188,660.8214Z"/><line class="cls-18" x1="459.0239" y1="680.6458" x2="460.5239" y2="680.6458"/><line class="cls-19" x1="463.5163" y1="680.6458" x2="599.6708" y2="680.6458"/><line class="cls-18" x1="601.167" y1="680.6458" x2="602.667" y2="680.6458"/><polygon class="cls-20" points="460.045 684.136 454 680.646 460.045 677.155 460.045 684.136"/><text class="cls-23" transform="translate(299.5581 685.7717)">OnStartCompleted</text><circle class="cls-35" cx="731.7053" cy="798.3867" r="90.7056"/><path class="cls-9" d="M612.9941,856.3635a60.8335,60.8335,0,1,1,60.833-60.833A60.9027,60.9027,0,0,1,612.9941,856.3635Z"/><path class="cls-3" d="M612.9941,737.1964A58.3335,58.3335,0,1,1,554.66,795.53a58.3339,58.3339,0,0,1,58.3339-58.334m0-5a63.3335,63.3335,0,1,0,63.333,63.334,63.4057,63.4057,0,0,0-63.333-63.334Z"/><text class="cls-6" transform="translate(586.918 801.3859)">Running</text><rect class="cls-9" x="752.5" y="761.0773" width="132" height="68.9043" rx="12.207" ry="12.207"/><path class="cls-3" d="M872.293,763.5773a9.7066,9.7066,0,0,1,9.707,9.707v44.49a9.7067,9.7067,0,0,1-9.707,9.707H764.707a9.7067,9.7067,0,0,1-9.707-9.707v-44.49a9.7066,9.7066,0,0,1,9.707-9.707H872.293m0-5H764.707A14.7236,14.7236,0,0,0,750,773.2843v44.49a14.7237,14.7237,0,0,0,14.707,14.707H872.293A14.7237,14.7237,0,0,0,887,817.7746v-44.49a14.7236,14.7236,0,0,0-14.707-14.707Z"/><text class="cls-6" transform="translate(794.125 791.5295)">Service <tspan x="-12.8408" y="16.7998">Compoment</tspan></text><rect class="cls-36" x="847.143" y="950.3859" width="135.0956" height="41.9892" rx="10.9537" ry="10.9537"/><text class="cls-37" transform="translate(890.9355 975.0314)">Update();</text><line class="cls-38" x1="791.4102" y1="883.172" x2="822.4102" y2="916.3859"/><line class="cls-39" x1="791.4102" y1="883.172" x2="792.4337" y2="884.2686"/><line class="cls-40" x1="794.3972" y1="886.3723" x2="816.9774" y2="910.5651"/><line class="cls-39" x1="817.9592" y1="911.617" x2="818.9826" y2="912.7136"/><polygon class="cls-41" points="815.734 914.349 822.41 916.386 820.837 909.585 815.734 914.349"/><rect class="cls-36" x="847.143" y="1005.1544" width="135.0956" height="41.9891" rx="10.9537" ry="10.9537"/><text class="cls-37" transform="translate(878.499 1029.8)">LateUpdate();</text><path class="cls-36" d="M1006.8744,950.3859h113.1882a10.9536,10.9536,0,0,1,10.9536,10.9536v20.0819a10.9537,10.9537,0,0,1-10.9537,10.9537H1006.8744a10.9537,10.9537,0,0,1-10.9537-10.9537V961.34A10.9537,10.9537,0,0,1,1006.8744,950.3859Z"/><text class="cls-37" transform="translate(1024.0889 975.0314)">FixedUpdate();</text><rect class="cls-36" x="847.143" y="1059.9228" width="135.0956" height="41.9892" rx="10.9537" ry="10.9537"/><text class="cls-37" transform="translate(891.6563 1084.5685)">OnGUI();</text><rect class="cls-42" x="828.4798" y="929.3859" width="326.0259" height="189.9784" rx="12" ry="12"/><rect class="cls-3" x="845.6631" y="916.3859" width="188.0423" height="26.4953"/><text class="cls-37" transform="translate(853.7652 934.6067)">Extended Component Support</text><path class="cls-36" d="M1006.8744,1003.3805h113.1882a10.9536,10.9536,0,0,1,10.9536,10.9536v20.0819a10.9537,10.9537,0,0,1-10.9537,10.9537H1006.8744a10.9537,10.9537,0,0,1-10.9537-10.9537v-20.0818A10.9537,10.9537,0,0,1,1006.8744,1003.3805Z"/><text class="cls-37" transform="translate(1029.7793 1028.026)">OnDestroy();</text><rect class="cls-3" x="685.3696" y="689.0671" width="92.6719" height="47.2275"/><text class="cls-43" transform="translate(692.4131 710.3859)">When Game<tspan x="21.7891" y="16.7998">Cycle</tspan></text></svg>