<svg id="图层_1" data-name="图层 1" xmlns="http://www.w3.org/2000/svg" viewBox="0 0 1200 1600"><defs><style>.cls-1,.cls-10,.cls-11,.cls-13,.cls-14,.cls-16,.cls-19,.cls-20,.cls-26,.cls-29,.cls-30,.cls-31{fill:none;}.cls-1{stroke:#a699a4;stroke-dasharray:3 3;}.cls-1,.cls-10,.cls-11,.cls-13,.cls-14,.cls-16,.cls-18,.cls-19,.cls-20,.cls-26,.cls-27,.cls-29,.cls-30,.cls-31,.cls-8{stroke-miterlimit:10;}.cls-1,.cls-10,.cls-11,.cls-13,.cls-14,.cls-16,.cls-18,.cls-19,.cls-20,.cls-26,.cls-29,.cls-30,.cls-31,.cls-8{stroke-width:2px;}.cls-2,.cls-22{fill:#a296a0;}.cls-22,.cls-24,.cls-25,.cls-3,.cls-32,.cls-9{font-size:14px;}.cls-18,.cls-27,.cls-3,.cls-7,.cls-8{fill:#fff;}.cls-22,.cls-24,.cls-25,.cls-3,.cls-32,.cls-33,.cls-9{font-family:ArialMT, Arial;}.cls-4{letter-spacing:-0.06em;}.cls-5{fill:#3a9874;}.cls-6{fill:#cf5c63;}.cls-13,.cls-14,.cls-8{stroke:#399f79;}.cls-15,.cls-9{fill:#399f79;}.cls-10,.cls-11{stroke:#35af54;}.cls-11,.cls-14,.cls-20{stroke-dasharray:2.99 2.99;}.cls-12{fill:#35af54;}.cls-16,.cls-26{stroke:#a497a2;}.cls-17{fill:#a497a2;}.cls-18,.cls-19,.cls-20,.cls-29{stroke:#927eb9;}.cls-21{fill:#927eb9;}.cls-23{letter-spacing:-0.04em;}.cls-24{fill:#8c79b0;}.cls-25{fill:#a0949f;}.cls-26{stroke-dasharray:3.02 3.02;}.cls-27{stroke:#fff;}.cls-28,.cls-32,.cls-33{fill:#c55960;}.cls-29{stroke-dasharray:3.04 3.04;}.cls-30,.cls-31{stroke:#c55960;}.cls-31{stroke-dasharray:2.88 2.88;}.cls-33{font-size:12.78px;}</style></defs><title>life-cycle</title><circle class="cls-1" cx="474.55" cy="1199.79" r="90.71"/><circle class="cls-1" cx="731.71" cy="705" r="90.71"/><circle class="cls-1" cx="612.6" cy="475.44" r="90.71"/><path class="cls-2" d="M710,108.49c0,4-4.21,7.27-9.4,7.27H523.44c-5.19,0-9.4-3.25-9.4-7.27V68c0-4,4.21-7.27,9.4-7.27H700.56c5.19,0,9.4,3.25,9.4,7.27Z"/><text class="cls-3" transform="translate(554.66 92.45)">new<tspan class="cls-4" x="25.68" y="0"> </tspan><tspan x="28.8" y="0">Applicatiton();</tspan></text><rect class="cls-5" x="487.62" y="169.09" width="248.8" height="55" rx="12" ry="12"/><text class="cls-3" transform="translate(582.6 200.59)">Bootstrap</text><rect class="cls-6" x="485.12" y="354.59" width="253.8" height="60" rx="14.5" ry="14.5"/><path class="cls-7" d="M724.42,357.09a12,12,0,0,1,12,12v31a12,12,0,0,1-12,12H499.62a12,12,0,0,1-12-12v-31a12,12,0,0,1,12-12h224.8m0-5H499.62a17,17,0,0,0-17,17v31a17,17,0,0,0,17,17h224.8a17,17,0,0,0,17-17v-31a17,17,0,0,0-17-17Z"/><text class="cls-3" transform="translate(549.96 390.59)">Init Service Provider</text><rect class="cls-8" x="268.33" y="243.94" width="174.43" height="38.56" rx="8.41" ry="8.41"/><text class="cls-9" transform="translate(275.57 268.26)">Register Service Provider</text><line class="cls-10" x1="458.02" y1="262.26" x2="459.52" y2="262.26"/><line class="cls-11" x1="462.52" y1="262.26" x2="598.67" y2="262.26"/><line class="cls-10" x1="600.17" y1="262.26" x2="601.67" y2="262.26"/><polygon class="cls-12" points="459.05 265.75 453 262.26 459.05 258.77 459.05 265.75"/><rect class="cls-8" x="269.3" y="297.44" width="174.45" height="38.56" rx="8.41" ry="8.41"/><text class="cls-9" transform="translate(298.13 321.59)">Service Init Config</text><line class="cls-13" x1="458.02" y1="317.26" x2="459.52" y2="317.26"/><line class="cls-14" x1="462.52" y1="317.26" x2="598.67" y2="317.26"/><line class="cls-13" x1="600.17" y1="317.26" x2="601.67" y2="317.26"/><polygon class="cls-15" points="459.05 320.75 453 317.26 459.05 313.77 459.05 320.75"/><line class="cls-16" x1="612" y1="229" x2="612" y2="347.98"/><polygon class="cls-17" points="608.51 346.95 612 353 615.49 346.95 608.51 346.95"/><line class="cls-16" x1="612.02" y1="120.86" x2="612.02" y2="160.64"/><polygon class="cls-17" points="608.53 159.62 612.02 165.67 615.51 159.62 608.53 159.62"/><path class="cls-6" d="M613,763a60.83,60.83,0,1,1,60.83-60.83A60.9,60.9,0,0,1,613,763Z"/><path class="cls-7" d="M613,643.81a58.33,58.33,0,1,1-58.33,58.33A58.33,58.33,0,0,1,613,643.81m0-5a63.33,63.33,0,1,0,63.33,63.33A63.41,63.41,0,0,0,613,638.81Z"/><line class="cls-16" x1="612.75" y1="571" x2="612.75" y2="634.75"/><polygon class="cls-17" points="609.26 633.73 612.75 639.77 616.24 633.73 609.26 633.73"/><rect class="cls-18" x="270.3" y="580.44" width="174.45" height="38.56" rx="8.41" ry="8.41"/><line class="cls-19" x1="459.02" y1="600.26" x2="460.52" y2="600.26"/><line class="cls-20" x1="463.52" y1="600.26" x2="599.67" y2="600.26"/><line class="cls-19" x1="601.17" y1="600.26" x2="602.67" y2="600.26"/><polygon class="cls-21" points="460.05 603.75 454 600.26 460.05 596.77 460.05 603.75"/><rect class="cls-7" x="456" y="445.67" width="138.01" height="70.33"/><text class="cls-22" transform="translate(503.92 477)"><tspan class="cls-23">W</tspan><tspan x="12.69" y="0">ait</tspan><tspan class="cls-4" x="27.48" y="0"> </tspan><tspan x="30.6" y="0">All</tspan><tspan x="-29.84" y="16.8">Inited Completed</tspan></text><text class="cls-24" transform="translate(299.56 605.39)">OnStartCompleted</text><text class="cls-3" transform="translate(586.92 708)">Running</text><rect class="cls-7" x="685.37" y="599.72" width="92.67" height="47.23"/><text class="cls-25" transform="translate(692.41 617)">When Game<tspan x="21.79" y="16.8">Cycle</tspan></text><rect class="cls-6" x="752.5" y="667.69" width="132" height="68.9" rx="12.21" ry="12.21"/><path class="cls-7" d="M872.29,670.19A9.71,9.71,0,0,1,882,679.9v44.49a9.71,9.71,0,0,1-9.71,9.71H764.71a9.71,9.71,0,0,1-9.71-9.71V679.9a9.71,9.71,0,0,1,9.71-9.71H872.29m0-5H764.71A14.72,14.72,0,0,0,750,679.9v44.49a14.72,14.72,0,0,0,14.71,14.71H872.29A14.72,14.72,0,0,0,887,724.39V679.9a14.72,14.72,0,0,0-14.71-14.71Z"/><text class="cls-3" transform="translate(794.13 698.14)">Service <tspan x="-12.84" y="16.8">Compoment</tspan></text><line class="cls-16" x1="612.02" y1="766.88" x2="612.02" y2="768.38"/><line class="cls-26" x1="612.02" y1="771.39" x2="612.02" y2="1137.97"/><line class="cls-16" x1="612.02" y1="1139.48" x2="612.02" y2="1140.98"/><polygon class="cls-17" points="608.53 1139.95 612.02 1146 615.51 1139.95 608.53 1139.95"/><rect class="cls-27" x="544" y="830" width="136" height="76"/><text class="cls-22" transform="translate(567.65 864)">When Destroy<tspan x="5.44" y="16.8">Application()</tspan></text><rect class="cls-28" x="516.5" y="1150.5" width="192" height="94" rx="14.5" ry="14.5"/><path class="cls-7" d="M694,1153a12,12,0,0,1,12,12v65a12,12,0,0,1-12,12H531a12,12,0,0,1-12-12v-65a12,12,0,0,1,12-12H694m0-5H531a17,17,0,0,0-17,17v65a17,17,0,0,0,17,17H694a17,17,0,0,0,17-17v-65a17,17,0,0,0-17-17Z"/><text class="cls-3" transform="translate(561.53 1203)">Release Service</text><line class="cls-16" x1="612.02" y1="1249.88" x2="612.02" y2="1371.98"/><polygon class="cls-17" points="608.53 1370.95 612.02 1377 615.51 1370.95 608.53 1370.95"/><circle class="cls-6" cx="612" cy="1447.14" r="58.33"/><text class="cls-3" transform="translate(581.09 1454)">Destroyed</text><rect class="cls-18" x="270.3" y="1427.86" width="174.45" height="38.56" rx="8.41" ry="8.41"/><line class="cls-19" x1="459.02" y1="1447.69" x2="460.52" y2="1447.69"/><line class="cls-29" x1="463.56" y1="1447.69" x2="540.98" y2="1447.69"/><line class="cls-19" x1="542.5" y1="1447.69" x2="544" y2="1447.69"/><polygon class="cls-21" points="460.05 1451.18 454 1447.68 460.05 1444.19 460.05 1451.18"/><text class="cls-24" transform="translate(316.29 1452.81)">OnDestroyed</text><line class="cls-30" x1="411" y1="1124" x2="409.98" y2="1122.9"/><line class="cls-31" x1="408.01" y1="1120.8" x2="385.43" y2="1096.61"/><line class="cls-30" x1="384.45" y1="1095.55" x2="383.43" y2="1094.46"/><polygon class="cls-28" points="386.68 1092.82 380 1090.79 381.57 1097.59 386.68 1092.82"/><rect class="cls-30" x="230.85" y="1044" width="148" height="46" rx="12" ry="12"/><text class="cls-32" transform="translate(275.71 1071)">Release();</text><line class="cls-30" x1="411.85" y1="1278.04" x2="410.82" y2="1279.14"/><line class="cls-31" x1="408.86" y1="1281.24" x2="386.28" y2="1305.43"/><line class="cls-30" x1="385.3" y1="1306.49" x2="384.27" y2="1307.58"/><polygon class="cls-28" points="382.42 1304.45 380.85 1311.26 387.52 1309.22 382.42 1304.45"/><rect class="cls-30" x="232" y="1311.65" width="148" height="46" rx="12" ry="12"/><text class="cls-32" transform="translate(269.09 1338.65)">OnDestroy();</text><rect class="cls-7" x="314.84" y="1167.83" width="138.01" height="70.33"/><text class="cls-22" transform="translate(360.15 1197.17)">Release<tspan x="-10.51" y="16.8">Component</tspan></text><rect class="cls-18" x="270.3" y="956.44" width="174.45" height="38.56" rx="8.41" ry="8.41"/><line class="cls-19" x1="459.02" y1="976.26" x2="460.52" y2="976.26"/><line class="cls-20" x1="463.52" y1="976.26" x2="599.67" y2="976.26"/><line class="cls-19" x1="601.17" y1="976.26" x2="602.67" y2="976.26"/><polygon class="cls-21" points="460.05 979.75 454 976.26 460.05 972.77 460.05 979.75"/><text class="cls-24" transform="translate(303.45 981.39)">OnBeforeDestroy</text><rect class="cls-30" x="827.14" y="837" width="135.1" height="41.99" rx="10.95" ry="10.95"/><text class="cls-33" transform="translate(870.94 861.65)">Update();</text><line class="cls-30" x1="791.41" y1="789.79" x2="792.43" y2="790.88"/><line class="cls-31" x1="794.4" y1="792.99" x2="816.98" y2="817.18"/><line class="cls-30" x1="817.96" y1="818.23" x2="818.98" y2="819.33"/><polygon class="cls-28" points="815.73 820.96 822.41 823 820.84 816.2 815.73 820.96"/><rect class="cls-30" x="827.14" y="891.77" width="135.1" height="41.99" rx="10.95" ry="10.95"/><text class="cls-33" transform="translate(858.5 916.41)">LateUpdate();</text><rect class="cls-30" x="975.92" y="837" width="135.1" height="41.99" rx="10.95" ry="10.95"/><text class="cls-33" transform="translate(1004.09 861.65)">FixedUpdate();</text><rect class="cls-30" x="827.14" y="946.54" width="135.1" height="41.99" rx="10.95" ry="10.95"/><text class="cls-33" transform="translate(871.66 971.18)">OnGUI();</text></svg>