<svg id="图层_1" data-name="图层 1" xmlns="http://www.w3.org/2000/svg" viewBox="0 0 2976 1363"><defs><style>.cls-1,.cls-19{fill:#e16564;}.cls-13,.cls-19,.cls-2,.cls-7{font-size:22px;}.cls-10,.cls-12,.cls-17,.cls-2,.cls-6,.cls-8{fill:#fff;}.cls-10,.cls-13,.cls-19,.cls-2,.cls-7,.cls-8{font-family:ArialMT, Arial;}.cls-3{fill:#3eb981;}.cls-14,.cls-15,.cls-18,.cls-4{fill:none;}.cls-4{stroke:#a497a2;}.cls-12,.cls-14,.cls-15,.cls-18,.cls-4{stroke-miterlimit:10;stroke-width:2px;}.cls-5,.cls-7{fill:#a497a2;}.cls-8{font-size:26px;}.cls-9{fill:#8d7ac4;}.cls-10{font-size:20px;}.cls-11{fill:#7c8eb9;}.cls-12,.cls-14,.cls-15{stroke:#907eb8;}.cls-13{fill:#8b79af;}.cls-15{stroke-dasharray:11.76 2.94;}.cls-16{fill:#907eb8;}.cls-17{fill-rule:evenodd;}.cls-18{stroke:#e16564;stroke-dasharray:12 3;}.cls-20{letter-spacing:-0.02em;}.cls-21{letter-spacing:-0.11em;}</style></defs><title>路由组件架构图</title><rect class="cls-1" x="869" y="574" width="407" height="236" rx="12" ry="12"/><text class="cls-2" transform="translate(894.85 618.64)">Routing</text><circle class="cls-3" cx="295" cy="692" r="118"/><line class="cls-4" x1="449" y1="653" x2="820.24" y2="653"/><polygon class="cls-5" points="818.05 660.48 831 653 818.05 645.52 818.05 660.48"/><line class="cls-4" x1="832" y1="727" x2="460.76" y2="727"/><polygon class="cls-5" points="462.95 719.52 450 727 462.95 734.48 462.95 719.52"/><rect class="cls-6" x="575" y="623" width="128" height="54"/><text class="cls-7" transform="translate(590.21 656.97)">Request</text><rect class="cls-6" x="566" y="700" width="146" height="54"/><text class="cls-7" transform="translate(586.21 733.97)">Response</text><text class="cls-8" transform="translate(236.44 701.64)">Dispatcher</text><rect class="cls-9" x="1730" y="574" width="274" height="236" rx="12" ry="12"/><text class="cls-10" transform="translate(1752.54 610.3)">Middleware</text><line class="cls-4" x1="1307" y1="656" x2="1678.24" y2="656"/><polygon class="cls-5" points="1676.05 663.48 1689 656 1676.05 648.52 1676.05 663.48"/><rect class="cls-6" x="1433" y="626" width="128" height="54"/><text class="cls-7" transform="translate(1448.21 659.97)">Request</text><line class="cls-4" x1="2032" y1="656" x2="2403.24" y2="656"/><polygon class="cls-5" points="2401.05 663.48 2414 656 2401.05 648.52 2401.05 663.48"/><rect class="cls-6" x="2158" y="626" width="128" height="54"/><text class="cls-7" transform="translate(2173.21 659.97)">Request</text><rect class="cls-11" x="2498" y="570" width="274" height="236" rx="12" ry="12"/><text class="cls-10" transform="translate(2520.54 606.3)">Service</text><line class="cls-4" x1="1685" y1="731" x2="1313.76" y2="731"/><polygon class="cls-5" points="1315.95 723.52 1303 731 1315.95 738.48 1315.95 723.52"/><rect class="cls-6" x="1419" y="704" width="146" height="54"/><text class="cls-7" transform="translate(1441.21 737.97)">Response</text><line class="cls-4" x1="2412" y1="738" x2="2040.76" y2="738"/><polygon class="cls-5" points="2042.95 730.52 2030 738 2042.95 745.48 2042.95 730.52"/><rect class="cls-6" x="2146" y="711" width="146" height="54"/><text class="cls-7" transform="translate(2168.21 744.97)">Response</text><circle class="cls-3" cx="2635" cy="806" r="98"/><text class="cls-2" transform="translate(2602.56 800.64)">Game <tspan x="-1.22" y="26.4">Project</tspan></text><circle class="cls-3" cx="2742" cy="617" r="98"/><text class="cls-2" transform="translate(2701.62 611.64)">Register<tspan x="-1.23" y="26.4">Function</tspan></text><rect class="cls-12" x="869.3" y="293.07" width="284.7" height="62.94" rx="13.73" ry="13.73"/><text class="cls-13" transform="translate(944.4 333.78)">OnDispatcher</text><line class="cls-14" x1="1012" y1="544" x2="1012" y2="538"/><line class="cls-15" x1="1012" y1="535.06" x2="1012" y2="404.23"/><line class="cls-14" x1="1012" y1="402.76" x2="1012" y2="396.76"/><polygon class="cls-16" points="1019.48 398.95 1012 386 1004.52 398.95 1019.48 398.95"/><path class="cls-17" d="M1093.61,660.89h-35v41.29h-21.75V691.86h-28.39v27.53h28.39V709.07h21.76v41.29h35v10.32H1122V733.16h-28.39v10.32h-27.94V709.07h27.94v10.32H1122V691.86h-28.39v10.32h-27.94v-34.4h27.94V678.1H1122V650.57h-28.39v10.32Zm20.28,38.84v11.8h-12.17v-11.8Zm0,41.29v11.8h-12.17V741Zm-85.17-41.29v11.8h-12.17v-11.8ZM1113.89,658v11.8h-12.17V658Z"/><path class="cls-16" d="M402.58,362.94a1.5,1.5,0,0,0,0-3,1.5,1.5,0,0,0,0,3Z"/><path class="cls-16" d="M508.16,115.15a1.5,1.5,0,0,0,0-3,1.5,1.5,0,0,0,0,3Z"/><rect class="cls-18" x="2454" y="495" width="422" height="436" rx="24" ry="24"/><text class="cls-19" transform="translate(2482.33 477.79)">Routing<tspan class="cls-20" x="75.83" y="0"> </tspan><tspan class="cls-21" x="81.54" y="0">T</tspan><tspan x="92.54" y="0">arget</tspan></text></svg>